<?xml version="1.0" encoding="iso-8859-1"?>
<svg version="1.1" id="Layer_1" xmlns="http://www.w3.org/2000/svg" xmlns:xlink="http://www.w3.org/1999/xlink" x="0px" y="0px"
	 viewBox="0 0 512 512" style="enable-background:new 0 0 512 512;" xml:space="preserve">
<circle style="fill:#6391F9;" cx="256" cy="256" r="256"/> <!-- background color -->
<g>
	<path style="fill:#FFFFFF;" d="M327.072 80.162H184.926c-57.768 0-104.765 46.997-104.765 104.765v142.146c0 57.766 46.997 104.766 104.766 104.766h142.146c57.765 0 104.766-46.998 104.766-104.766V184.926C431.838 127.158 384.84 80.162 327.072 80.162L327.072 80.162zM396.46 327.074c0 38.321-31.066 69.386-69.386 69.386H184.928c-38.321 0-69.386-31.066-69.386-69.386V184.927c0-38.321 31.066-69.388 69.387-69.388h142.146c38.321 0 69.386 31.068 69.386 69.388V327.074z"/>
	<path style="fill:#FFFFFF;" d="M256.002 165.044c-50.153 0-90.958 40.805-90.958 90.958 0 50.149 40.805 90.954 90.958 90.954s90.954-40.801 90.954-90.954S306.155 165.044 256.002 165.044L256.002 165.044zM256.002 311.577c-30.695 0-55.579-24.88-55.579-55.576s24.884-55.579 55.579-55.579 55.576 24.882 55.576 55.579C311.577 286.697 286.697 311.577 256.002 311.577L256.002 311.577z"/>
	<path style="fill:#FFFFFF;" d="M368.124 164.929c0 12.036-9.758 21.796-21.796 21.796-12.036 0-21.796-9.76-21.796-21.796 0-12.037 9.76-21.796 21.796-21.796C358.368 143.133 368.124 152.889 368.124 164.929L368.124 164.929z"/>
</g>
</svg>